<?xml version="1.0" encoding="UTF-8"?>
<svg version="1.1" xmlns="http://www.w3.org/2000/svg" width="256" height="256">
<path d="M0 0 C84.48 0 168.96 0 256 0 C256 84.48 256 168.96 256 256 C171.52 256 87.04 256 0 256 C0 171.52 0 87.04 0 0 Z " fill="#000000" transform="translate(0,0)"/>
<path d="M0 0 C47.52 0 95.04 0 144 0 C144 28.05 144 56.1 144 85 C143.34 85 142.68 85 142 85 C142 85.66 142 86.32 142 87 C114.61 87 87.22 87 59 87 C59 77.1 59 67.2 59 57 C77.15 57 95.3 57 114 57 C114 48.09 114 39.18 114 30 C86.28 30 58.56 30 30 30 C30 57.72 30 85.44 30 114 C57.72 114 85.44 114 114 114 C114 122.91 114 131.82 114 141 C111.4880141 143.5119859 109.97367159 143.23524138 106.54733276 143.24884033 C105.78776276 143.24164978 105.02819275 143.23445923 104.24560547 143.22705078 C103.44552063 143.22734283 102.64543579 143.22763489 101.82110596 143.22793579 C99.16969047 143.22653956 96.51855406 143.2109647 93.8671875 143.1953125 C92.03158726 143.19158341 90.19598502 143.18873595 88.36038208 143.18673706 C83.52372768 143.1790924 78.68719297 143.1594368 73.85058594 143.1373291 C68.91733418 143.11688857 63.98406313 143.10773919 59.05078125 143.09765625 C49.36712639 143.07619165 39.68359186 143.04100277 30 143 C30 152.24 30 161.48 30 171 C29.34 171 28.68 171 28 171 C28 171.66 28 172.32 28 173 C18.76 173 9.52 173 0 173 C0 115.91 0 58.82 0 0 Z " fill="#FCFCFC" transform="translate(61,38)"/>
<path d="M0 0 C0.33 0 0.66 0 1 0 C1 28.05 1 56.1 1 85 C0.34 85 -0.32 85 -1 85 C-1 85.66 -1 86.32 -1 87 C-28.39 87 -55.78 87 -84 87 C-84 77.1 -84 67.2 -84 57 C-66.18 57 -48.36 57 -30 57 C-30 57.33 -30 57.66 -30 58 C-47.49 58 -64.98 58 -83 58 C-83 67.24 -83 76.48 -83 86 C-56.93 86 -30.86 86 -4 86 C-4 85.34 -4 84.68 -4 84 C-2.68 83.67 -1.36 83.34 0 83 C0 55.61 0 28.22 0 0 Z " fill="#D5D5D4" transform="translate(204,38)"/>
<path d="M0 0 C0.33 0 0.66 0 1 0 C1 28.05 1 56.1 1 85 C0.34 85 -0.32 85 -1 85 C-1 85.66 -1 86.32 -1 87 C-2.32 86.67 -3.64 86.34 -5 86 C-3.625 84.5 -3.625 84.5 -2 83 C-1.34 83 -0.68 83 0 83 C0 55.61 0 28.22 0 0 Z " fill="#C7C6C6" transform="translate(204,38)"/>
</svg>
